<svg width="20" height="19" viewBox="0 0 20 19" fill="none" xmlns="http://www.w3.org/2000/svg">
<path d="M19.029 8.43455L11.1188 0.931436C10.9684 0.794819 10.791 0.687727 10.5968 0.616305C10.2116 0.466216 9.77959 0.466216 9.39443 0.616305C9.20023 0.687727 9.02281 0.794819 8.87236 0.931436L0.96221 8.43455C0.814704 8.57447 0.697696 8.74057 0.617866 8.92338C0.538037 9.10619 0.496948 9.30213 0.496948 9.5C0.496948 9.89962 0.664308 10.2829 0.96221 10.5654C1.26011 10.848 1.66415 11.0068 2.08545 11.0068C2.50675 11.0068 2.91079 10.848 3.20869 10.5654L8.41357 5.61338V17.0031C8.41357 17.4011 8.58025 17.7828 8.87694 18.0642C9.17362 18.3456 9.57602 18.5037 9.9956 18.5037C10.4152 18.5037 10.8176 18.3456 11.1143 18.0642C11.411 17.7828 11.5776 17.4011 11.5776 17.0031V5.61338L16.7825 10.5654C16.9296 10.7061 17.1045 10.8177 17.2973 10.8939C17.4901 10.9701 17.6969 11.0093 17.9057 11.0093C18.1146 11.0093 18.3214 10.9701 18.5142 10.8939C18.7069 10.8177 18.8819 10.7061 19.029 10.5654C19.1773 10.4259 19.295 10.26 19.3753 10.0771C19.4556 9.89424 19.4969 9.6981 19.4969 9.5C19.4969 9.3019 19.4556 9.10576 19.3753 8.92289C19.295 8.74003 19.1773 8.57406 19.029 8.43455Z" fill="white"/>
</svg>
