<svg width="20" height="20" viewBox="0 0 20 20" fill="none" xmlns="http://www.w3.org/2000/svg">
<path d="M0.875 9.875C0.875 5.63268 0.875 3.51058 2.19279 2.19279C3.51058 0.875 5.63174 0.875 9.875 0.875C14.1173 0.875 16.2394 0.875 17.5572 2.19279C18.875 3.51058 18.875 5.63174 18.875 9.875C18.875 14.1173 18.875 16.2394 17.5572 17.5572C16.2394 18.875 14.1183 18.875 9.875 18.875C5.63268 18.875 3.51058 18.875 2.19279 17.5572C0.875 16.2394 0.875 14.1183 0.875 9.875Z" stroke="black" stroke-width="1.5" stroke-linecap="round" stroke-linejoin="round"/>
<path d="M15.0931 4.66446H15.0836M14.1381 9.87499C14.1381 11.0056 13.689 12.09 12.8895 12.8895C12.09 13.689 11.0056 14.1381 9.87497 14.1381C8.74431 14.1381 7.65996 13.689 6.86047 12.8895C6.06097 12.09 5.61182 11.0056 5.61182 9.87499C5.61182 8.74433 6.06097 7.65998 6.86047 6.86048C7.65996 6.06098 8.74431 5.61183 9.87497 5.61183C11.0056 5.61183 12.09 6.06098 12.8895 6.86048C13.689 7.65998 14.1381 8.74433 14.1381 9.87499Z" stroke="black" stroke-width="1.5" stroke-linecap="round" stroke-linejoin="round"/>
</svg>
