<svg width="20" height="22" viewBox="0 0 20 22" fill="none" xmlns="http://www.w3.org/2000/svg">
<path d="M17.5944 8.97558C17.5006 11.2703 16.1135 13.8593 13.821 16.4933C12.7334 17.7402 11.5379 18.9053 10.2462 19.9772C10.2461 19.9773 10.246 19.9774 10.2459 19.9774L9.9994 20.1764C9.94038 20.1301 9.85866 20.0639 9.75406 19.9774C8.46223 18.9054 7.26669 17.7403 6.17897 16.4933C3.88763 13.8593 2.49938 11.2702 2.40446 8.97551C2.36737 8.04338 2.53608 7.11387 2.90064 6.24246C3.26522 5.37101 3.81826 4.57537 4.52698 3.90322C5.2357 3.23106 6.08555 2.6962 7.02586 2.33081C7.96617 1.96541 8.97752 1.77704 9.99944 1.77704C11.0214 1.77704 12.0327 1.96541 12.973 2.33081C13.9133 2.6962 14.7632 3.23106 15.4719 3.90322C16.1806 4.57537 16.7337 5.37101 17.0982 6.24246C17.4628 7.1139 17.6315 8.04343 17.5944 8.97558ZM0.95 8.73065C0.95 11.8459 3.00359 14.9789 5.04716 17.3272C6.07008 18.5027 7.09286 19.4842 7.85985 20.1718C8.24338 20.5156 8.56304 20.7861 8.7869 20.9706C8.89883 21.0629 8.98682 21.1337 9.04687 21.1814C9.0769 21.2053 9.09994 21.2235 9.1155 21.2356L9.13317 21.2494L9.13768 21.2529L9.13789 21.253C9.13812 21.2532 9.13834 21.2534 9.13857 21.2536C9.61471 21.6467 10.3893 21.6512 10.8625 21.2527L10.8302 21.2145C10.8608 21.2541 10.8608 21.2541 10.8609 21.254L10.8612 21.2538L10.8623 21.2529L10.8668 21.2494L10.8845 21.2356C10.9001 21.2235 10.9231 21.2053 10.9531 21.1814C11.0132 21.1337 11.1012 21.0629 11.2131 20.9706C11.437 20.7861 11.7566 20.5156 12.1402 20.1718C12.9071 19.4842 13.9299 18.5027 14.9528 17.3272C16.9964 14.9789 19.05 11.8459 19.05 8.73065C19.05 6.53297 18.0953 4.42631 16.3977 2.87381C14.7002 1.32143 12.3988 0.45 10 0.45C7.60116 0.45 5.29977 1.32143 3.6023 2.87381C1.90467 4.42631 0.95 6.53297 0.95 8.73065ZM12.1936 10.7307C11.6126 11.2622 10.8235 11.5614 10 11.5614C9.17646 11.5614 8.38745 11.2622 7.80636 10.7307C7.22542 10.1995 6.9 9.47989 6.9 8.73065C6.9 7.98141 7.22542 7.26185 7.80636 6.73057C8.38745 6.19915 9.17646 5.89992 10 5.89992C10.8235 5.89992 11.6126 6.19915 12.1936 6.73057C12.7746 7.26185 13.1 7.98141 13.1 8.73065C13.1 9.47989 12.7746 10.1995 12.1936 10.7307ZM6.78428 11.6775C7.63784 12.4581 8.79464 12.896 10 12.896C11.2054 12.896 12.3622 12.4581 13.2157 11.6775C14.0694 10.8968 14.55 9.83688 14.55 8.73065C14.55 7.62442 14.0694 6.56451 13.2157 5.78378C12.3622 5.00318 11.2054 4.56533 10 4.56533C8.79464 4.56533 7.63784 5.00318 6.78428 5.78378C5.93056 6.56451 5.45 7.62442 5.45 8.73065C5.45 9.83688 5.93056 10.8968 6.78428 11.6775Z" fill="black" stroke="black" stroke-width="0.1"/>
</svg>
