<svg width="21" height="18" viewBox="0 0 21 18" fill="none" xmlns="http://www.w3.org/2000/svg">
<path d="M19.0312 18H1.96875C0.879375 18 0 16.995 0 15.75V2.25C0 1.005 0.879375 0 1.96875 0H19.0312C20.1206 0 21 1.005 21 2.25V15.75C21 16.995 20.1206 18 19.0312 18ZM1.96875 1.5C1.60125 1.5 1.3125 1.83 1.3125 2.25V15.75C1.3125 16.17 1.60125 16.5 1.96875 16.5H19.0312C19.3988 16.5 19.6875 16.17 19.6875 15.75V2.25C19.6875 1.83 19.3988 1.5 19.0312 1.5H1.96875Z" fill="black"/>
<path d="M10.5001 11.94C9.5813 11.94 8.7413 11.52 8.1113 10.755L1.22068 2.38503C0.971302 2.08503 0.984427 1.60503 1.24693 1.32003C1.50943 1.03503 1.92943 1.05003 2.1788 1.35003L9.06943 9.72003C9.81755 10.635 11.1826 10.635 11.9307 9.72003L18.8213 1.36503C19.0707 1.06503 19.4907 1.05003 19.7532 1.33503C20.0157 1.62003 20.0288 2.10003 19.7794 2.40003L12.8888 10.77C12.2588 11.535 11.4188 11.955 10.5001 11.955V11.94Z" fill="black"/>
</svg>
