<svg width="19" height="18" viewBox="0 0 19 18" fill="none" xmlns="http://www.w3.org/2000/svg">
<path d="M13.0349 12.2992L13.4792 11.8584L12.4474 10.8231L12.0051 11.2639L13.0349 12.2992ZM14.9688 11.6735L16.8306 12.6845L17.5272 11.4021L15.6664 10.3921L14.9688 11.6735ZM17.1882 14.6927L15.8047 16.0676L16.8345 17.1019L18.218 15.728L17.1882 14.6927ZM14.961 16.5093C13.5483 16.6417 9.89483 16.5239 5.93736 12.5949L4.90658 13.6292C9.22453 17.9173 13.335 18.1274 15.0974 17.963L14.961 16.5093ZM5.93736 12.5949C2.16597 8.84891 1.54049 5.69931 1.46254 4.33225L0.00309176 4.41495C0.100519 6.13521 0.875062 9.62633 4.90658 13.6292L5.93736 12.5949ZM7.27697 6.58182L7.55659 6.30354L6.52776 5.26925L6.24815 5.54655L7.27697 6.58182ZM7.77872 2.76669L6.55114 1.12816L5.38105 2.00386L6.60863 3.64142L7.77872 2.76669ZM2.41927 0.771074L0.889675 2.28895L1.92045 3.32422L3.44908 1.80634L2.41927 0.771074ZM6.76256 6.06418C6.2462 5.54655 6.2462 5.54655 6.2462 5.5485H6.24425L6.24133 5.55239C6.19503 5.59901 6.15357 5.65019 6.11759 5.70515C6.06498 5.78299 6.0075 5.88515 5.95879 6.01456C5.8402 6.34862 5.81065 6.70774 5.87305 7.05664C6.00361 7.89829 6.58427 9.01042 8.071 10.4874L9.10178 9.45217C7.70955 8.07051 7.3783 7.22984 7.31692 6.83285C7.28769 6.64409 7.31789 6.55068 7.32666 6.52928C7.33251 6.5163 7.33251 6.51436 7.32666 6.52344C7.31798 6.53687 7.3082 6.54956 7.29743 6.56139L7.28769 6.57112L7.27795 6.57987L6.76256 6.06418ZM8.071 10.4874C9.55871 11.9644 10.6781 12.5405 11.5219 12.6689C11.9535 12.7351 12.3013 12.6825 12.5653 12.5842C12.7132 12.5302 12.8514 12.4527 12.9745 12.3546L13.0232 12.3108L13.03 12.305L13.0329 12.3021L13.0339 12.3001C13.0339 12.3001 13.0349 12.2992 12.5195 11.7815C12.0031 11.2639 12.0061 11.2629 12.0061 11.2629L12.008 11.261L12.01 11.259L12.0158 11.2542L12.0256 11.2444L12.0626 11.2152C12.0717 11.2094 12.0694 11.21 12.0558 11.2172C12.0314 11.2259 11.9359 11.2561 11.744 11.2269C11.3406 11.1646 10.493 10.8338 9.10178 9.45217L8.071 10.4874ZM6.55114 1.12719C5.55739 -0.196087 3.60496 -0.406254 2.41927 0.771074L3.44908 1.80634C3.96739 1.29163 4.88709 1.34514 5.38105 2.00386L6.55114 1.12719ZM1.46352 4.33322C1.44403 3.99656 1.59894 3.64434 1.92045 3.32519L0.888701 2.28992C0.365519 2.80951 -0.0465959 3.54509 0.00309176 4.41495L1.46352 4.33322ZM15.8047 16.0676C15.5378 16.3342 15.2494 16.484 14.962 16.5103L15.0974 17.963C15.8135 17.8958 16.399 17.5358 16.8355 17.1029L15.8047 16.0676ZM7.55659 6.30354C8.51624 5.35098 8.58736 3.84575 7.77969 2.76767L6.6096 3.64239C7.00223 4.16684 6.94377 4.85475 6.52679 5.27022L7.55659 6.30354ZM16.8316 12.6854C17.6276 13.1175 17.7513 14.1352 17.1892 14.6937L18.2199 15.728C19.5255 14.431 19.1231 12.268 17.5282 11.403L16.8316 12.6854ZM13.4792 11.8594C13.8533 11.4877 14.4554 11.3962 14.9698 11.6745L15.6674 10.3931C14.6113 9.81899 13.3018 9.97758 12.4484 10.8241L13.4792 11.8594Z" fill="black"/>
</svg>
